<?xml version="1.0" encoding="UTF-8"?>
<svg width="132px" height="20px" viewBox="0 0 132 20" version="1.1" xmlns="http://www.w3.org/2000/svg" xmlns:xlink="http://www.w3.org/1999/xlink">
    <title>servicenow-header-logo</title>
    <g id="Page-1" stroke="none" stroke-width="1" fill="none" fill-rule="evenodd">
        <g id="servicenow-header-logo" transform="translate(0.500000, 0.499636)" fill-rule="nonzero">
            <path d="M31.522,5.8913338 C30.2035107,5.88829545 28.9258251,6.34840386 27.912,7.19136415 L27.912,6.02336415 L24.619,6.02336415 L24.619,18.8503641 L28.044,18.8503641 L28.044,10.6503641 C28.78945,9.68121491 29.930846,9.09821815 31.153,9.06236415 C31.6201721,9.03836062 32.0874078,9.10841197 32.527,9.26836415 L32.527,5.97936415 C32.1951584,5.92115085 31.8589088,5.8917081 31.522,5.8913338" id="Path" fill="#000000"></path>
            <path d="M1.66,14.9363641 C2.63797484,15.7632645 3.87932232,16.2133416 5.16,16.2053641 C6.082,16.2053641 6.793,15.7553641 6.793,15.1213641 C6.793,13.1903641 0.602,13.8783641 0.602,9.75236415 C0.602,7.29336415 2.973,5.75936415 5.502,5.75936415 C7.03774877,5.76358339 8.53897034,6.21533988 9.822,7.05936415 L8.22,9.54036415 C7.51290941,9.00379339 6.6570935,8.69919279 5.77,8.66836415 C4.822,8.66836415 4.031,9.03836415 4.031,9.69936415 C4.031,11.3653641 10.223,10.7043641 10.223,15.1473641 C10.223,17.6073641 7.823,19.1143641 5.138,19.1143641 C3.28789746,19.0963989 1.49034925,18.4967497 8.8817842e-16,17.4003641 L1.66,14.9363641 Z" id="Path" fill="#000000"></path>
            <path d="M23.1571894,12.3173641 C23.1571894,8.74736415 20.657,5.75936415 17.123,5.75936415 C13.329,5.75936415 10.905,8.87936415 10.905,12.4503641 C10.8289006,14.2454684 11.5108719,15.989888 12.7842872,17.2574069 C14.0577024,18.5249258 15.8052682,19.1987939 17.6,19.1143641 C19.5977718,19.1406464 21.5093809,18.3020614 22.843,16.8143641 L20.893,14.8573641 C20.0678249,15.7678051 18.9072256,16.3026053 17.679,16.3383641 C15.9062892,16.3960574 14.3940362,15.0659402 14.225,13.3003641 L23.078,13.3003641 C23.1325089,12.9755736 23.1589399,12.6466913 23.1571894,12.3173641 Z M14.383,10.7843641 C14.636555,9.47341699 15.7877783,8.52890969 17.123,8.53636415 C18.4133872,8.53830027 19.4992874,9.5031634 19.653,10.7843641 L14.383,10.7843641 Z" id="Shape" fill="#000000"></path>
            <polygon id="Path" fill="#000000" points="40.69 13.8513641 44.194 6.02336415 47.752 6.02336415 41.876 18.8503641 39.505 18.8503641 33.629 6.02336415 37.186 6.02336415"></polygon>
            <path d="M50.628,0.000364148737 C51.8375752,0.0223600771 52.8024375,1.0168597 52.7878398,2.22654677 C52.7732421,3.43623385 51.7846621,4.40716055 50.5749084,4.40004064 C49.3651547,4.39276251 48.3882,3.41013928 48.388,2.20036415 C48.3879024,1.60989084 48.6251702,1.04416392 49.0464423,0.630414528 C49.4677144,0.216665141 50.0376243,-0.0103717379 50.628,0.000364148737" id="Path" fill="#000000"></path>
            <rect id="Rectangle" fill="#000000" x="48.915" y="6.02336415" width="3.425" height="12.827"></rect>
            <path d="M66.5,16.2313641 C65.1821074,18.1154289 62.9976046,19.2012775 60.7,19.1143641 C58.2707734,19.1759424 55.9997214,17.9134931 54.7697025,15.8177863 C53.5396836,13.7220795 53.5447421,11.1237281 54.7829117,9.03282648 C56.0210813,6.94192483 58.2970316,5.68832783 60.726,5.75936415 C62.8164532,5.74377426 64.7981733,6.68946952 66.101,8.32436415 L63.677,10.4663641 C62.9915318,9.51682812 61.8970017,8.94786535 60.726,8.93236415 C59.7983386,8.92856669 58.9086273,9.30035617 58.2594827,9.96306381 C57.6103382,10.6257715 57.2570234,11.5229796 57.28,12.4503641 C57.2492689,13.3922582 57.6128143,14.3042814 58.2830683,14.9667528 C58.9533223,15.6292241 59.8695291,15.9820934 60.811,15.9403641 C62.0466129,15.9157693 63.1903476,15.2825236 63.867,14.2483641 L66.5,16.2313641 Z" id="Path" fill="#000000"></path>
            <path d="M78.942,16.8133641 C77.6084597,18.3011702 75.6967985,19.139778 73.699,19.1133641 C71.9047764,19.1969245 70.1580194,18.5226717 68.8852768,17.2552543 C67.6125341,15.9878369 66.9309633,14.2439223 67.007,12.4493641 C67.007,8.87836415 69.431,5.75836415 73.225,5.75836415 C76.755,5.75836415 79.258,8.74636415 79.258,12.3163641 C79.2602111,12.6443748 79.2337773,12.9719521 79.179,13.2953641 L70.326,13.2953641 C70.4935153,15.0613407 72.0049962,16.3928625 73.778,16.3363641 C75.0064413,16.3002993 76.1672369,15.7655751 76.993,14.8553641 L78.942,16.8133641 Z M75.754,10.7843641 C75.6007582,9.50331935 74.5151763,8.5383577 73.225,8.53636415 C71.8896364,8.52850937 70.7381901,9.47319961 70.485,10.7843641 L75.754,10.7843641 Z" id="Shape" fill="#000000"></path>
            <path d="M80.62,18.8503641 L80.62,6.02336415 L83.913,6.02336415 L83.913,7.05436415 C84.9272102,6.2133505 86.2044615,5.75504058 87.522,5.75930395 C89.2310047,5.75458585 90.8534789,6.51066542 91.949,7.82236415 C92.9341398,9.10547534 93.4038995,10.7105768 93.266,12.3223641 L93.266,18.8503641 L89.841,18.8503641 L89.841,12.0503641 C89.9382033,11.176089 89.6606156,10.3015422 89.077,9.64336415 C88.5554667,9.16071397 87.8641453,8.90402989 87.154,8.92936415 C85.9321238,8.9654004 84.790929,9.54792727 84.045,10.5163641 L84.045,18.8503641 L80.62,18.8503641 Z" id="Path" fill="#000000"></path>
            <path d="M102.086,5.75936415 C99.0110731,5.75294835 96.2437474,7.62411029 95.1042936,10.4801323 C93.9648398,13.3361543 94.6841316,16.5983557 96.919,18.7103641 C97.4483545,19.2144211 98.2662903,19.2568892 98.845,18.8103641 C100.742452,17.3983021 103.341548,17.3983021 105.239,18.8103641 C105.82342,19.2580274 106.647598,19.2099468 107.176,18.6973641 C109.392771,16.5937626 110.111504,13.3555236 108.992842,10.5116163 C107.87418,7.66770898 105.14187,5.78695174 102.086,5.75736415 M102.042,17.0003641 C101.043827,17.0273531 100.078462,16.6427628 99.3722945,15.9367846 C98.6661273,15.2308065 98.2812784,14.2655442 98.308,13.2673641 C98.308,11.2051329 99.9797687,9.53336415 102.042,9.53336415 C104.104231,9.53336415 105.776,11.2051329 105.776,13.2673641 C105.802722,14.2655442 105.417873,15.2308065 104.711705,15.9367846 C104.005538,16.6427628 103.040173,17.0273531 102.042,17.0003641" id="Shape" fill="#62D84E"></path>
            <polygon id="Path" fill="#000000" points="116.288 18.8503641 113.737 18.8503641 108.65 6.02336415 112.07 6.02336415 114.859 13.3533641 117.594 6.02336415 120.452 6.02336415 123.162 13.3533641 125.975 6.02336415 129.396 6.02336415 124.309 18.8503641 121.758 18.8503641 119.023 11.5463641"></polygon>
            <path d="M129.435,17.4003641 L129.146,17.4003641 L129.146,17.9433641 L128.9,17.9433641 L128.9,16.4573557 L129.5,16.4573557 C129.626937,16.4568297 129.748829,16.5070186 129.838587,16.5967771 C129.928346,16.6865356 129.978534,16.8084276 129.978,16.9353641 C129.976564,17.1259237 129.859967,17.2966695 129.683,17.3673641 L130.021,17.9463641 L129.753,17.9463641 L129.435,17.4003641 Z M129.146,17.1813641 L129.5,17.1813641 C129.638071,17.1813641 129.75,17.0694353 129.75,16.9313641 C129.75,16.793293 129.638071,16.6813641 129.5,16.6813641 L129.149,16.6813641 L129.146,17.1813641 Z" id="Shape" fill="#000000"></path>
            <path d="M129.4,15.8483634 C129.957844,15.8479596 130.460985,16.1836856 130.674743,16.6989504 C130.888501,17.2142153 130.770766,17.8075117 130.376454,18.2021103 C129.982141,18.5967089 129.388931,18.7148737 128.873511,18.5014894 C128.358091,18.2881051 128.022,17.7852086 128.022,17.2273641 C128.0231,16.4666098 128.639247,15.850016 129.4,15.8483634 M129.4,15.6303641 C128.516344,15.6303641 127.8,16.3467085 127.8,17.2303641 C127.8,18.1140197 128.516344,18.8303641 129.4,18.8303641 C130.283656,18.8303641 131,18.1140197 131,17.2303641 C131,16.3467085 130.283656,15.6303641 129.4,15.6303641 L129.4,15.6303641 Z" id="Shape" fill="#000000"></path>
        </g>
    </g>
</svg>